<?xml version="1.0" encoding="UTF-8" standalone="no"?>
<svg viewBox="0 0 24 24" version="1.1" xmlns="http://www.w3.org/2000/svg" xmlns:xlink="http://www.w3.org/1999/xlink">
    <!-- Generator: sketchtool 39.1 (31720) - http://www.bohemiancoding.com/sketch -->
    <title>38AC833A-3165-47FE-8B16-1199C2FF3BF7</title>
    <desc>Created with sketchtool.</desc>
    <defs>
        <rect id="path-1" x="0" y="0" width="375" height="60"></rect>
        <filter x="-50%" y="-50%" width="200%" height="200%" filterUnits="objectBoundingBox" id="filter-2">
            <feOffset dx="0" dy="0.5" in="SourceAlpha" result="shadowOffsetOuter1"></feOffset>
            <feComposite in="shadowOffsetOuter1" in2="SourceAlpha" operator="out" result="shadowOffsetOuter1"></feComposite>
            <feColorMatrix values="0 0 0 0 0   0 0 0 0 0   0 0 0 0 0  0 0 0 0.1 0" type="matrix" in="shadowOffsetOuter1"></feColorMatrix>
        </filter>
    </defs>
    <g id="Tweet" stroke="none" stroke-width="1" fill="none" fill-rule="evenodd">
        <g id="Tweets-Flow" transform="translate(-274.000000, -127.000000)">
            <g id="Group-17" transform="translate(0.000000, 109.000000)">
                <g id="Rectangle">
                    <use fill="black" fill-opacity="1" filter="url(#filter-2)" xlink:href="#path-1"></use>
                    <use fill-opacity="0.980000019" fill-rule="evenodd" xlink:href="#path-1"></use>
                </g>
                <g id="camera-copy-3" transform="translate(274.000000, 18.000000)" stroke="#CCCCCC">
                    <g id="compose" transform="translate(0.000000, 2.000000)">
                        <path d="M22.4475603,5.04558333 L23.7397368,3.28075 C24.0810603,2.81458333 24.0021191,2.15841667 23.5495015,1.80658333 L21.5009132,0.214416667 C21.0482956,-0.137416667 20.3989721,-0.0474166667 20.0574868,0.418916667 L18.7653103,2.18375 L22.4475603,5.04558333 L22.4475603,5.04558333 Z" id="Stroke-1"></path>
                        <path d="M18.7498132,2.2135 L10.4757103,13.5055 L9.23060735,16.8216667 M11.3825632,18.4943333 L14.1579603,16.3673333 L22.4729897,5.02966667" id="Stroke-3"></path>
                        <path d="M9.24070147,16.7945833 L8.36296618,19.09325 C8.36296618,19.09325 8.39483382,19.4960833 8.71642206,19.7604167 C9.08767206,20.0655833 9.47412794,19.9594167 9.47412794,19.9594167 L11.452025,18.4464167" id="Stroke-5"></path>
                        <path d="M0.496460298,2.57214355 L11.4964603,2.57214355" id="Stroke-7"></path>
                        <path d="M0.513916016,5.53540039 L11.513916,5.53540039" id="Stroke-9"></path>
                        <path d="M0.512084961,8.53588867 L8.51208496,8.53588867" id="Stroke-11"></path>
                    </g>
                </g>
                <g id="camera-copy-4" transform="translate(274.000000, 18.000000)" stroke="#CCCCCC">
                    <g id="compose" transform="translate(0.000000, 2.000000)">
                        <path d="M22.4475603,5.04558333 L23.7397368,3.28075 C24.0810603,2.81458333 24.0021191,2.15841667 23.5495015,1.80658333 L21.5009132,0.214416667 C21.0482956,-0.137416667 20.3989721,-0.0474166667 20.0574868,0.418916667 L18.7653103,2.18375 L22.4475603,5.04558333 L22.4475603,5.04558333 Z" id="Stroke-1"></path>
                        <path d="M18.7498132,2.2135 L10.4757103,13.5055 L9.23060735,16.8216667 M11.3825632,18.4943333 L14.1579603,16.3673333 L22.4729897,5.02966667" id="Stroke-3"></path>
                        <path d="M9.24070147,16.7945833 L8.36296618,19.09325 C8.36296618,19.09325 8.39483382,19.4960833 8.71642206,19.7604167 C9.08767206,20.0655833 9.47412794,19.9594167 9.47412794,19.9594167 L11.452025,18.4464167" id="Stroke-5"></path>
                        <path d="M0.496460298,2.57214355 L11.4964603,2.57214355" id="Stroke-7"></path>
                        <path d="M0.513916016,5.53540039 L11.513916,5.53540039" id="Stroke-9"></path>
                        <path d="M0.512084961,8.53588867 L8.51208496,8.53588867" id="Stroke-11"></path>
                    </g>
                </g>
            </g>
        </g>
    </g>
</svg>